<?xml version="1.0" encoding="UTF-8"?>
<svg xmlns="http://www.w3.org/2000/svg" xmlns:xlink="http://www.w3.org/1999/xlink" width="24pt" height="24pt" viewBox="0 0 24 24" version="1.1">
<g id="surface1">
<path style=" stroke:none;fill-rule:nonzero;fill:rgb(0%,0%,0%);fill-opacity:1;" d="M 19.761719 7.832031 C 17.917969 7.832031 16.355469 9.035156 15.808594 10.695312 L 15.722656 10.695312 C 15.148438 10.695312 15.007812 10.570312 14.472656 10.101562 L 14.324219 9.972656 L 13.960938 9.609375 L 13.832031 9.460938 C 13.367188 8.929688 13.242188 8.785156 13.242188 8.210938 C 14.914062 7.671875 16.128906 6.097656 16.128906 4.25 C 16.128906 1.953125 14.257812 0.0820312 11.960938 0.0820312 C 9.664062 0.0820312 7.796875 1.953125 7.796875 4.25 C 7.796875 6.097656 9.007812 7.671875 10.679688 8.210938 C 10.679688 8.785156 10.554688 8.929688 10.089844 9.460938 L 9.960938 9.609375 L 9.597656 9.972656 L 9.449219 10.101562 C 8.914062 10.570312 8.773438 10.695312 8.199219 10.695312 L 8.1875 10.695312 C 7.632812 9.046875 6.074219 7.851562 4.238281 7.851562 C 1.941406 7.851562 0.0742188 9.722656 0.0742188 12.019531 C 0.0742188 14.316406 1.941406 16.183594 4.238281 16.183594 C 6.105469 16.183594 7.691406 14.949219 8.21875 13.253906 C 8.773438 13.257812 8.921875 13.386719 9.449219 13.84375 L 9.597656 13.972656 L 9.960938 14.335938 L 10.089844 14.488281 C 10.554688 15.019531 10.679688 15.164062 10.679688 15.738281 L 10.679688 15.8125 C 9.019531 16.363281 7.816406 17.925781 7.816406 19.769531 C 7.816406 22.066406 9.683594 23.933594 11.980469 23.933594 C 14.277344 23.933594 16.144531 22.066406 16.144531 19.769531 C 16.144531 17.910156 14.921875 16.335938 13.242188 15.800781 L 13.242188 15.738281 C 13.242188 15.164062 13.367188 15.019531 13.832031 14.488281 L 13.960938 14.339844 L 14.324219 13.972656 L 14.472656 13.84375 C 15.007812 13.378906 15.152344 13.253906 15.722656 13.253906 L 15.789062 13.253906 C 16.324219 14.941406 17.902344 16.164062 19.761719 16.164062 C 22.058594 16.164062 23.925781 14.296875 23.925781 12 C 23.925781 9.703125 22.058594 7.832031 19.761719 7.832031 Z M 20.027344 12.019531 C 20.027344 12.164062 19.90625 12.285156 19.761719 12.285156 C 19.613281 12.285156 19.496094 12.164062 19.496094 12.019531 C 19.496094 11.871094 19.613281 11.753906 19.761719 11.753906 C 19.90625 11.753906 20.027344 11.871094 20.027344 12.019531 Z M 19.097656 9.238281 L 19.097656 10.574219 C 18.753906 10.734375 18.476562 11.011719 18.316406 11.355469 L 16.996094 11.355469 C 17.238281 10.3125 18.058594 9.488281 19.097656 9.238281 Z M 11.980469 4.515625 C 11.835938 4.515625 11.714844 4.394531 11.714844 4.25 C 11.714844 4.25 11.714844 4.25 11.714844 4.246094 C 11.714844 4.101562 11.835938 3.980469 11.980469 3.980469 C 12.128906 3.980469 12.246094 4.101562 12.246094 4.25 C 12.246094 4.394531 12.128906 4.515625 11.980469 4.515625 Z M 12.644531 7.003906 L 12.644531 5.691406 C 12.988281 5.535156 13.265625 5.257812 13.425781 4.910156 L 14.71875 4.910156 C 14.472656 5.9375 13.667969 6.75 12.644531 7.003906 Z M 11.960938 1.40625 C 13.300781 1.40625 14.421875 2.339844 14.71875 3.585938 L 13.425781 3.585938 C 13.171875 3.039062 12.621094 2.65625 11.980469 2.65625 C 11.339844 2.65625 10.789062 3.039062 10.535156 3.585938 L 9.199219 3.585938 C 9.5 2.339844 10.621094 1.40625 11.960938 1.40625 Z M 9.203125 4.910156 L 10.535156 4.910156 C 10.695312 5.257812 10.972656 5.535156 11.316406 5.691406 L 11.316406 7.011719 C 10.273438 6.769531 9.453125 5.953125 9.203125 4.910156 Z M 7.003906 11.375 L 5.683594 11.375 C 5.527344 11.03125 5.246094 10.753906 4.902344 10.59375 L 4.902344 9.257812 C 5.941406 9.507812 6.761719 10.332031 7.003906 11.375 Z M 4.507812 12.039062 C 4.507812 12.183594 4.386719 12.304688 4.238281 12.304688 C 4.09375 12.304688 3.972656 12.183594 3.972656 12.039062 C 3.972656 11.890625 4.09375 11.773438 4.238281 11.773438 C 4.386719 11.773438 4.507812 11.890625 4.507812 12.039062 Z M 1.398438 12.019531 C 1.398438 10.679688 2.332031 9.558594 3.578125 9.257812 L 3.578125 10.59375 C 3.03125 10.847656 2.648438 11.398438 2.648438 12.039062 C 2.648438 12.679688 3.03125 13.230469 3.578125 13.484375 L 3.578125 14.777344 C 2.332031 14.476562 1.398438 13.355469 1.398438 12.019531 Z M 4.902344 14.777344 L 4.902344 13.484375 C 5.246094 13.324219 5.527344 13.046875 5.683594 12.699219 L 6.992188 12.699219 C 6.738281 13.726562 5.929688 14.53125 4.902344 14.777344 Z M 11.734375 19.765625 C 11.738281 19.621094 11.855469 19.503906 12 19.503906 C 12.148438 19.503906 12.265625 19.621094 12.265625 19.769531 C 12.265625 19.914062 12.148438 20.035156 12 20.035156 C 11.855469 20.035156 11.738281 19.917969 11.734375 19.769531 C 11.734375 19.769531 11.734375 19.765625 11.734375 19.765625 Z M 11.335938 17.003906 L 11.335938 18.324219 C 10.992188 18.484375 10.714844 18.761719 10.554688 19.105469 L 9.222656 19.105469 C 9.472656 18.066406 10.292969 17.246094 11.335938 17.003906 Z M 11.980469 22.609375 C 10.644531 22.609375 9.519531 21.679688 9.222656 20.433594 L 10.554688 20.433594 C 10.808594 20.980469 11.359375 21.359375 12 21.359375 C 12.640625 21.359375 13.195312 20.980469 13.445312 20.433594 L 14.738281 20.433594 C 14.441406 21.679688 13.316406 22.609375 11.980469 22.609375 Z M 14.738281 19.105469 L 13.445312 19.105469 C 13.285156 18.761719 13.007812 18.484375 12.664062 18.324219 L 12.664062 17.015625 C 13.6875 17.269531 14.492188 18.078125 14.738281 19.105469 Z M 13.601562 12.847656 L 13.441406 12.988281 C 13.425781 13 13.414062 13.007812 13.402344 13.019531 L 13.007812 13.417969 C 12.996094 13.429688 12.984375 13.441406 12.972656 13.453125 L 12.832031 13.617188 C 12.421875 14.085938 12.082031 14.476562 11.960938 15.164062 C 11.839844 14.476562 11.5 14.085938 11.089844 13.617188 L 10.949219 13.453125 C 10.9375 13.441406 10.925781 13.429688 10.914062 13.417969 L 10.519531 13.019531 C 10.507812 13.007812 10.496094 12.996094 10.484375 12.988281 L 10.320312 12.847656 C 9.847656 12.433594 9.457031 12.09375 8.769531 11.976562 C 9.457031 11.855469 9.851562 11.511719 10.320312 11.101562 L 10.484375 10.960938 C 10.496094 10.949219 10.507812 10.9375 10.519531 10.925781 L 10.914062 10.53125 C 10.925781 10.519531 10.9375 10.507812 10.949219 10.496094 L 11.089844 10.332031 C 11.5 9.863281 11.839844 9.46875 11.960938 8.785156 C 12.082031 9.472656 12.421875 9.863281 12.832031 10.332031 L 12.972656 10.496094 C 12.984375 10.507812 12.996094 10.519531 13.007812 10.53125 L 13.402344 10.925781 C 13.414062 10.941406 13.425781 10.949219 13.441406 10.960938 L 13.601562 11.101562 C 14.070312 11.511719 14.464844 11.855469 15.152344 11.976562 C 14.464844 12.09375 14.074219 12.433594 13.601562 12.847656 Z M 17.007812 12.679688 L 18.316406 12.679688 C 18.476562 13.027344 18.753906 13.304688 19.097656 13.464844 L 19.097656 14.757812 C 18.070312 14.511719 17.261719 13.707031 17.007812 12.679688 Z M 20.421875 14.757812 L 20.421875 13.464844 C 20.972656 13.210938 21.351562 12.660156 21.351562 12.019531 C 21.351562 11.378906 20.972656 10.824219 20.421875 10.574219 L 20.421875 9.238281 C 21.671875 9.539062 22.601562 10.660156 22.601562 12 C 22.601562 13.335938 21.671875 14.457031 20.421875 14.757812 Z M 20.421875 14.757812 "/>
</g>
</svg>
