<?xml version="1.0" encoding="UTF-8"?>
<svg xmlns="http://www.w3.org/2000/svg" xmlns:xlink="http://www.w3.org/1999/xlink" width="24pt" height="24pt" viewBox="0 0 24 24" version="1.1">
<g id="surface1">
<path style=" stroke:none;fill-rule:nonzero;fill:rgb(0%,0%,0%);fill-opacity:1;" d="M 13.40625 17.121094 C 13.40625 17.121094 17.003906 20.71875 17.261719 20.976562 C 18.09375 21.808594 19.441406 21.808594 20.273438 20.976562 C 21.105469 20.144531 21.105469 18.796875 20.273438 17.964844 C 20.015625 17.707031 16.417969 14.109375 16.417969 14.109375 Z M 13.40625 17.121094 "/>
<path style=" stroke:none;fill-rule:nonzero;fill:rgb(0%,0%,0%);fill-opacity:1;" d="M 19.199219 8.800781 L 16.636719 8.164062 L 15.996094 5.601562 L 18.960938 2.636719 C 17.257812 2.09375 15.320312 2.496094 13.96875 3.847656 C 12.042969 5.773438 12.660156 8.285156 14.589844 10.210938 C 16.515625 12.140625 19.027344 12.757812 20.953125 10.828125 C 22.304688 9.476562 22.707031 7.539062 22.164062 5.835938 Z M 19.199219 8.800781 "/>
<path style=" stroke:none;fill-rule:nonzero;fill:rgb(0%,0%,0%);fill-opacity:1;" d="M 10 9.199219 L 7.199219 6.398438 L 6.398438 4 L 3.199219 2.398438 L 1.601562 4 L 3.199219 7.199219 L 5.601562 8 L 8.398438 10.800781 Z M 10 9.199219 "/>
<path style=" stroke:none;fill-rule:nonzero;fill:rgb(0%,0%,0%);fill-opacity:1;" d="M 14.304688 7.101562 C 11.613281 9.792969 4.195312 17.210938 3.902344 17.503906 C 2.964844 18.441406 2.964844 19.960938 3.902344 20.898438 C 4.839844 21.835938 6.359375 21.835938 7.296875 20.898438 C 7.589844 20.605469 15.007812 13.1875 17.699219 10.496094 Z M 5.601562 20 C 5.160156 20 4.800781 19.640625 4.800781 19.199219 C 4.800781 18.757812 5.160156 18.398438 5.601562 18.398438 C 6.042969 18.398438 6.398438 18.757812 6.398438 19.199219 C 6.398438 19.640625 6.042969 20 5.601562 20 Z M 5.601562 20 "/>
</g>
</svg>
